<?xml version="1.0" encoding="utf-8"?>
<!-- Generator: Adobe Illustrator 16.0.0, SVG Export Plug-In . SVG Version: 6.00 Build 0)  -->
<!DOCTYPE svg PUBLIC "-//W3C//DTD SVG 1.1//EN" "http://www.w3.org/Graphics/SVG/1.1/DTD/svg11.dtd">
<svg version="1.1" id="Layer_1" xmlns="http://www.w3.org/2000/svg" xmlns:xlink="http://www.w3.org/1999/xlink" x="0px" y="0px"
	 width="85px" height="85px" viewBox="0 0 85 85" enable-background="new 0 0 85 85" xml:space="preserve">
<image overflow="visible" width="1500" height="1500" xlink:href="../../NFT/Products/Background/red.png"  transform="matrix(0.0567 0 0 0.0567 0 0)">
</image>
<image overflow="visible" width="1500" height="1500" xlink:href="../../NFT/Products/Base/base-slategray.png"  transform="matrix(0.0567 0 0 0.0567 0 0)">
</image>
<image overflow="visible" width="1500" height="1500" xlink:href="../../NFT/Products/Earning/Earning-couple-gold.png"  transform="matrix(0.0567 0 0 0.0567 0 0)">
</image>
<image overflow="visible" width="1500" height="1500" xlink:href="../../NFT/Products/Eyes/eyes-type2.png"  transform="matrix(0.0567 0 0 0.0567 0 0)">
</image>
<image overflow="visible" width="1500" height="1500" xlink:href="../../NFT/Products/Eyes-Accessory/pirate-eye-patch-white.png"  transform="matrix(0.0567 0 0 0.0567 0 0)">
</image>
<image overflow="visible" width="1500" height="1500" xlink:href="../../NFT/Products/Headwear/iron-dome-gray.png"  transform="matrix(0.0567 0 0 0.0567 0 0)">
</image>
<image overflow="visible" width="1500" height="1500" xlink:href="../../NFT/Products/Mouth/mouth-type5.png"  transform="matrix(0.0567 0 0 0.0567 0 0)">
</image>
<image overflow="visible" width="1500" height="1500" xlink:href="../../NFT/Products/Nose/nose-piercing-gold.png"  transform="matrix(0.0567 0 0 0.0567 0 0)">
</image>
<image overflow="visible" width="1500" height="1500" xlink:href="../../NFT/Products/Headwear/beret-yellow-purple.png"  transform="matrix(0.0567 0 0 0.0567 0 0)">
</image>
<image overflow="visible" width="1500" height="1500" xlink:href="../../NFT/Products/Wear/jacket-aqua-gray.png"  transform="matrix(0.0567 0 0 0.0567 0 0)">
</image>
<image overflow="visible" width="1500" height="1500" xlink:href="../../NFT/Products/Worm/worm-yellow-aqua.png"  transform="matrix(0.0567 0 0 0.0567 0 0)">
</image>
</svg>
